<svg width="14" height="14" viewBox="0 0 14 14" fill="none" xmlns="http://www.w3.org/2000/svg">
<path d="M7.71875 13H7C7.24333 13 7.483 12.9832 7.71875 12.9551V13ZM6.01855 12.918C6.33802 12.9706 6.66564 13 7 13H6.01855V12.918ZM7 1C10.3137 1 13 3.68629 13 7C13 10.0704 10.6935 12.5998 7.71875 12.9551V8.62207H9.13184L9.34473 6.91406H7.71875V5.82422C7.71875 5.32028 7.84774 4.99422 8.53125 4.99414H9.40039V3.46777C8.97987 3.42234 8.55658 3.39973 8.13379 3.40039C6.87742 3.40057 6.01855 4.19721 6.01855 5.65625V6.91406H4.59961V8.62207H6.01855V12.918C3.17189 12.4494 1 9.97935 1 7C1 3.68629 3.68629 1 7 1Z" fill="white"/>
</svg>
