<svg width="14" height="14" viewBox="0 0 14 14" fill="none" xmlns="http://www.w3.org/2000/svg">
<path fill-rule="evenodd" clip-rule="evenodd" d="M5.19512 5.19512H7.40156V6.31981H7.42576C7.76215 5.71337 8.75571 5.09756 9.9842 5.09756C12.3421 5.09756 13 6.34946 13 8.66829V13H10.6585V9.09522C10.6585 8.05717 10.2441 7.14634 9.27473 7.14634C8.09775 7.14634 7.53659 7.94322 7.53659 9.25132V13H5.19512V5.19512ZM1.29268 13H3.63415V5.19512H1.29268V13ZM3.92683 2.46341C3.92683 3.272 3.272 3.92683 2.46341 3.92683C1.65483 3.92683 1 3.272 1 2.46341C1 1.65483 1.65483 1 2.46341 1C3.272 1 3.92683 1.65483 3.92683 2.46341Z" fill="white"/>
</svg>
