<svg width="14" height="14" viewBox="0 0 14 14" fill="none" xmlns="http://www.w3.org/2000/svg">
<path d="M1.14624 6.9999C1.14624 9.49892 2.71258 11.6326 4.91697 12.4721C4.86331 12.015 4.80624 11.2614 4.92917 10.7326C5.03502 10.2779 5.61258 7.836 5.61258 7.836C5.61258 7.836 5.43844 7.48722 5.43844 6.97063C5.43844 6.16087 5.9077 5.556 6.49258 5.556C6.99014 5.556 7.23014 5.92917 7.23014 6.37648C7.23014 6.87648 6.91161 7.6238 6.74722 8.31697C6.61014 8.89697 7.03844 9.37014 7.61014 9.37014C8.64575 9.37014 9.44234 8.27795 9.44234 6.70136C9.44234 5.30575 8.43941 4.33063 7.0077 4.33063C5.35014 4.33063 4.37697 5.57404 4.37697 6.85941C4.37697 7.36039 4.56965 7.89697 4.81063 8.18917C4.83117 8.21123 4.84569 8.23822 4.85278 8.26752C4.85987 8.29683 4.8593 8.32747 4.85112 8.35648C4.80673 8.54087 4.70819 8.93648 4.68917 9.01746C4.66331 9.1238 4.60478 9.14673 4.49405 9.09502C3.76624 8.75648 3.31161 7.69258 3.31161 6.83795C3.31161 4.99941 4.64673 3.31161 7.16136 3.31161C9.18283 3.31161 10.754 4.75209 10.754 6.67697C10.754 8.68526 9.48819 10.3018 7.73014 10.3018C7.13941 10.3018 6.58478 9.99453 6.39453 9.63209C6.39453 9.63209 6.10234 10.7453 6.03161 11.0175C5.89404 11.5462 5.51258 12.2155 5.276 12.5955C5.82136 12.7633 6.3999 12.8536 6.9999 12.8536C10.2326 12.8536 12.8536 10.2326 12.8536 6.9999C12.8536 3.76722 10.2326 1.14624 6.9999 1.14624C3.76722 1.14624 1.14624 3.76722 1.14624 6.9999Z" fill="white"/>
</svg>
