<svg width="14" height="14" viewBox="0 0 14 14" fill="none" xmlns="http://www.w3.org/2000/svg">
<path d="M10.204 3.076C10.0616 3.076 9.92242 3.11823 9.80398 3.19734C9.6856 3.27645 9.59332 3.38891 9.53878 3.52047C9.4843 3.65203 9.47008 3.7968 9.49786 3.93647C9.52564 4.07613 9.59416 4.20443 9.6949 4.30512C9.79558 4.40581 9.92386 4.47438 10.0635 4.50216C10.2032 4.52994 10.3479 4.51569 10.4795 4.4612C10.6111 4.4067 10.7235 4.31441 10.8027 4.19601C10.8818 4.07761 10.924 3.9384 10.924 3.796C10.924 3.60504 10.8482 3.42191 10.7131 3.28688C10.5781 3.15186 10.395 3.076 10.204 3.076ZM12.964 4.528C12.9524 4.03018 12.8591 3.53764 12.688 3.07C12.5354 2.66988 12.298 2.30757 11.992 2.008C11.6949 1.70046 11.3318 1.46451 10.93 1.318C10.4636 1.1417 9.97048 1.04633 9.472 1.036C8.836 1 8.632 1 7 1C5.368 1 5.164 1 4.528 1.036C4.02949 1.04633 3.5364 1.1417 3.07 1.318C2.66901 1.46599 2.30616 1.70174 2.008 2.008C1.70046 2.30511 1.46451 2.66826 1.318 3.07C1.1417 3.5364 1.04633 4.02949 1.036 4.528C1 5.164 1 5.368 1 7C1 8.632 1 8.836 1.036 9.472C1.04633 9.97048 1.1417 10.4636 1.318 10.93C1.46451 11.3318 1.70046 11.6949 2.008 11.992C2.30616 12.2982 2.66901 12.534 3.07 12.682C3.5364 12.8583 4.02949 12.9537 4.528 12.964C5.164 13 5.368 13 7 13C8.632 13 8.836 13 9.472 12.964C9.97048 12.9537 10.4636 12.8583 10.93 12.682C11.3318 12.5355 11.6949 12.2996 11.992 11.992C12.2993 11.6936 12.537 11.3309 12.688 10.93C12.8591 10.4624 12.9524 9.96982 12.964 9.472C12.964 8.836 13 8.632 13 7C13 5.368 13 5.164 12.964 4.528ZM11.884 9.4C11.8796 9.78088 11.8107 10.1582 11.68 10.516C11.5842 10.7771 11.4303 11.013 11.23 11.206C11.0354 11.4043 10.7999 11.5578 10.54 11.656C10.1822 11.7867 9.80488 11.8556 9.424 11.86C8.824 11.89 8.602 11.896 7.024 11.896C5.446 11.896 5.224 11.896 4.624 11.86C4.22853 11.8674 3.83475 11.8065 3.46 11.68C3.21147 11.5769 2.98682 11.4237 2.8 11.23C2.60085 11.0372 2.4489 10.8011 2.356 10.54C2.20952 10.1771 2.12826 9.79114 2.116 9.4C2.116 8.8 2.08 8.578 2.08 7C2.08 5.422 2.08 5.2 2.116 4.6C2.11869 4.21064 2.18977 3.82477 2.326 3.46C2.43163 3.20675 2.59376 2.981 2.8 2.8C2.98229 2.5937 3.20757 2.42986 3.46 2.32C3.82573 2.18802 4.2112 2.11905 4.6 2.116C5.2 2.116 5.422 2.08 7 2.08C8.578 2.08 8.8 2.08 9.4 2.116C9.78088 2.12037 10.1582 2.18935 10.516 2.32C10.7886 2.42119 11.0334 2.58571 11.23 2.8C11.4266 2.98431 11.5803 3.20964 11.68 3.46C11.8134 3.82536 11.8824 4.21107 11.884 4.6C11.914 5.2 11.92 5.422 11.92 7C11.92 8.578 11.914 8.8 11.884 9.4ZM7 3.922C6.39149 3.92319 5.79698 4.10472 5.29159 4.44365C4.78621 4.78259 4.39263 5.26372 4.16058 5.82625C3.92853 6.38879 3.86843 7.0075 3.98787 7.60414C4.10732 8.20084 4.40094 8.7487 4.83165 9.1786C5.26235 9.60844 5.81081 9.901 6.40772 10.0193C7.00462 10.1376 7.62322 10.0763 8.1853 9.8431C8.74738 9.61 9.22774 9.21544 9.56566 8.7094C9.90364 8.20336 10.084 7.60852 10.084 7C10.0848 6.59506 10.0055 6.19397 9.85072 5.81978C9.69598 5.44559 9.46876 5.10569 9.18214 4.81963C8.89552 4.53357 8.55514 4.30701 8.18068 4.15296C7.80616 3.99891 7.40494 3.92042 7 3.922ZM7 8.998C6.60483 8.998 6.21854 8.88082 5.88997 8.66128C5.5614 8.44174 5.30531 8.12968 5.15409 7.76458C5.00286 7.39954 4.9633 6.99778 5.04039 6.61021C5.11748 6.22263 5.30778 5.86662 5.5872 5.5872C5.86662 5.30778 6.22263 5.11748 6.61021 5.04039C6.99779 4.9633 7.39954 5.00286 7.76458 5.15409C8.12968 5.30531 8.44174 5.5614 8.66128 5.88997C8.88082 6.21854 8.998 6.60483 8.998 7C8.998 7.26238 8.94634 7.52218 8.8459 7.76458C8.74552 8.00704 8.59834 8.22724 8.41282 8.41282C8.22724 8.59834 8.00704 8.74552 7.76458 8.8459C7.52218 8.94634 7.26238 8.998 7 8.998Z" fill="white"/>
</svg>
