<svg width="14" height="14" viewBox="0 0 14 14" fill="none" xmlns="http://www.w3.org/2000/svg">
<path fill-rule="evenodd" clip-rule="evenodd" d="M0.999939 1.43848H4.62913L12.9249 12.5385H9.37082L0.999939 1.43848ZM2.27727 2.07478L9.68843 11.9022H11.6545L4.3098 2.07478H2.27727Z" fill="white" stroke="white" stroke-width="0.4"/>
<path d="M11.6124 1.43823H12.5874L9.9999 4.21323L8.00683 6.35073L7.57102 5.78823L9.03428 4.21323L11.6124 1.43823Z" fill="white"/>
<path d="M2.2374 12.5382H1.2999L5.86388 7.62573L6.29348 8.18823L2.2374 12.5382Z" fill="white"/>
<path d="M11.6124 1.43823H12.5874L9.9999 4.21323L8.00683 6.35073L7.57102 5.78823L9.03428 4.21323L11.6124 1.43823Z" stroke="white" stroke-width="0.4"/>
<path d="M2.2374 12.5382H1.2999L5.86388 7.62573L6.29348 8.18823L2.2374 12.5382Z" stroke="white" stroke-width="0.4"/>
</svg>
