<svg width="14" height="14" viewBox="0 0 14 14" fill="none" xmlns="http://www.w3.org/2000/svg">
<path d="M7.62638 3.19605C7.62634 2.91683 7.51323 2.64718 7.30975 2.44693C7.18769 2.32685 7.0388 2.23822 6.87636 2.18603L4.8934 6.57724V11.8679H10.5619C10.6942 11.8694 10.8215 11.8239 10.9201 11.7415C11.0186 11.6591 11.0818 11.5458 11.1005 11.4239V11.4231L11.8621 6.53213C11.8732 6.4592 11.8689 6.38473 11.8479 6.31368C11.8268 6.24223 11.7897 6.17546 11.7391 6.11822C11.6885 6.06095 11.6252 6.01463 11.5534 5.9829C11.4815 5.95116 11.4028 5.93514 11.3234 5.93603H8.19244C7.87988 5.93603 7.62649 5.68251 7.62638 5.36999V3.19605ZM2.13211 11.347L2.14184 11.4469C2.16179 11.5457 2.2118 11.6384 2.28689 11.7123C2.38715 11.8108 2.5252 11.8679 2.67075 11.8679H3.76129V7.023H2.67075C2.52509 7.023 2.38717 7.07997 2.28689 7.17866C2.187 7.27696 2.13219 7.40799 2.13211 7.54304V11.347ZM8.75849 4.80395H11.3172C11.5559 4.80215 11.7923 4.85082 12.0107 4.94723C12.2308 5.04447 12.4279 5.18786 12.5873 5.36822C12.7468 5.54874 12.865 5.76239 12.9332 5.99351C13.0013 6.22454 13.0176 6.46742 12.9809 6.70548V6.70637L12.2194 11.5973C12.1581 11.9934 11.9534 12.3521 11.6463 12.6091C11.3407 12.8647 10.9537 13.002 10.5557 12.9991V13H2.67075C2.23063 13 1.80658 12.8278 1.49264 12.5189C1.21768 12.2483 1.04637 11.892 1.00796 11.5115L1 11.347V7.54304C1.00008 7.10185 1.17848 6.68034 1.49264 6.37117C1.80655 6.06237 2.23073 5.89092 2.67075 5.89092H3.96118L6.01932 1.33343C6.11088 1.13068 6.31337 1 6.53584 1C7.12233 1.00006 7.68656 1.22954 8.10399 1.64033C8.52167 2.05143 8.75845 2.61074 8.75849 3.19605V4.80395Z" fill="white"/>
</svg>
