<svg width="48" height="48" viewBox="0 0 48 48" fill="none" xmlns="http://www.w3.org/2000/svg">
<circle cx="24" cy="24" r="24" fill="#FF3131"/>
<path d="M12.6757 14.2628C12.4913 14.0938 12.2502 14 12 14C11.9855 14 11.971 14.0003 11.9566 14.0009C11.6916 14.0125 11.4421 14.1288 11.2628 14.3243C11.0938 14.5087 11 14.7498 11 15C11 15.0145 11.0003 15.029 11.0009 15.0434C11.0125 15.3084 11.1288 15.5579 11.3243 15.7372L23.3243 26.7372C23.7066 27.0876 24.2934 27.0876 24.6757 26.7372L36.6751 15.7378C36.8817 15.5484 37 15.2803 37 15L37 14.9917C36.9979 14.7444 36.9043 14.5066 36.7372 14.3243C36.5579 14.1288 36.3084 14.0125 36.0434 14.0009C36.029 14.0003 36.0145 14 36 14L35.9954 14C35.7468 14.0012 35.5075 14.0949 35.3243 14.2628L24 24.6434L12.6757 14.2628Z" fill="white"/>
<path fill-rule="evenodd" clip-rule="evenodd" d="M11 32V15C11 14.4477 11.4477 14 12 14L36 14C36.5523 14 37 14.4477 37 15V32C37 32 37 32.8284 36.4142 33.4142C36.4142 33.4142 35.8284 34 35 34H13C13 34 12.1716 34 11.5858 33.4142C11.5858 33.4142 11 32.8284 11 32ZM13 32H35V16H13V32Z" fill="white"/>
<path d="M21.1366 23.263L11.6366 31.9755C11.4301 32.1649 11.3125 32.4323 11.3125 32.7125L11.3125 32.7211C11.3147 32.9684 11.4083 33.2061 11.5755 33.3884C11.7649 33.5949 12.0323 33.7125 12.3125 33.7125L12.3211 33.7125C12.5684 33.7103 12.8061 33.6167 12.9884 33.4495L22.4884 24.737C22.6949 24.5476 22.8125 24.2802 22.8125 24L22.8125 23.9914C22.8103 23.7441 22.7167 23.5064 22.5495 23.3241C22.3702 23.1286 22.1207 23.0124 21.8557 23.0009C21.8413 23.0003 21.8269 23 21.8125 23L21.8077 23C21.5591 23.0012 21.3198 23.095 21.1366 23.263Z" fill="white"/>
<path d="M36.3634 31.9755L26.8634 23.263C26.679 23.0938 26.4378 23 26.1875 23C26.1731 23 26.1587 23.0003 26.1443 23.0009C25.8793 23.0124 25.6298 23.1286 25.4505 23.3241C25.2813 23.5085 25.1875 23.7497 25.1875 24C25.1875 24.0144 25.1878 24.0288 25.1884 24.0432C25.1999 24.3082 25.3161 24.5577 25.5116 24.737L35.0113 33.4493C35.1958 33.6184 35.4372 33.7125 35.6875 33.7125C35.7019 33.7125 35.7163 33.7122 35.7307 33.7116C35.9957 33.7001 36.2452 33.5839 36.4245 33.3884C36.5937 33.204 36.6875 32.9628 36.6875 32.7125C36.6875 32.6981 36.6872 32.6837 36.6866 32.6693C36.6751 32.4043 36.5589 32.1548 36.3634 31.9755Z" fill="white"/>
</svg>
