<svg width="48" height="48" viewBox="0 0 48 48" fill="none" xmlns="http://www.w3.org/2000/svg">
<g clip-path="url(#clip0_28400_70537)">
<path d="M0 24C0 10.7452 10.7452 0 24 0C37.2548 0 48 10.7452 48 24C48 37.2548 37.2548 48 24 48C10.7452 48 0 37.2548 0 24Z" fill="#349DF0"/>
<path d="M24.11 18.8523L24.1686 19.8039L23.1931 19.6874C19.6425 19.2407 16.5406 17.726 13.9068 15.182L12.6192 13.9198L12.2876 14.8519C11.5853 16.9298 12.034 19.1242 13.4972 20.6001C14.2775 21.4157 14.1019 21.5323 12.7558 21.0468C12.2876 20.8914 11.8779 20.7749 11.8389 20.8331C11.7023 20.9691 12.1705 22.7363 12.5412 23.4354C13.0484 24.4064 14.0824 25.3579 15.2139 25.9211L16.1699 26.3677L15.0384 26.3872C13.9459 26.3872 13.9068 26.4066 14.0239 26.8144C14.4141 28.0767 15.9553 29.4166 17.6721 29.9992L18.8816 30.407L17.8281 31.0285C16.2674 31.9218 14.4336 32.4267 12.5997 32.4655C11.7218 32.4849 11 32.5626 11 32.6209C11 32.8151 13.3801 33.9026 14.7652 34.3298C18.9207 35.5921 23.8564 35.0483 27.5631 32.8927C30.1968 31.3586 32.8306 28.3097 34.0596 25.3579C34.7229 23.7849 35.3862 20.9108 35.3862 19.532C35.3862 18.6387 35.4448 18.5222 36.5373 17.4541C37.1811 16.8327 37.7858 16.153 37.9029 15.9588C38.098 15.5898 38.0785 15.5898 37.0835 15.92C35.4253 16.5026 35.1911 16.4249 36.0105 15.551C36.6153 14.9296 37.3371 13.8032 37.3371 13.4731C37.3371 13.4148 37.0445 13.5119 36.7128 13.6867C36.3617 13.8809 35.5813 14.1722 34.9961 14.347L33.9426 14.6771L32.9866 14.0363C32.4599 13.6867 31.7185 13.2983 31.3284 13.1818C30.3334 12.9099 28.8117 12.9488 27.9143 13.2595C25.4757 14.1334 23.9345 16.3861 24.11 18.8523Z" fill="white"/>
</g>
<defs>
<clipPath id="clip0_28400_70537">
<rect width="48" height="48" fill="white"/>
</clipPath>
</defs>
</svg>
