<svg width="48" height="48" viewBox="0 0 48 48" fill="none" xmlns="http://www.w3.org/2000/svg">
<g clip-path="url(#clip0_28400_70513)">
<path d="M24 48C37.2548 48 48 37.2548 48 24C48 10.7452 37.2548 0 24 0C10.7452 0 0 10.7452 0 24C0 37.2548 10.7452 48 24 48Z" fill="#25D366"/>
<path fill-rule="evenodd" clip-rule="evenodd" d="M24.7911 37.3523H24.7852C22.3967 37.3515 20.0498 36.7522 17.9654 35.6153L10.4 37.5998L12.4246 30.2046C11.1758 28.0403 10.5186 25.5853 10.5197 23.07C10.5228 15.2015 16.9248 8.7998 24.791 8.7998C28.6087 8.80145 32.1918 10.2877 34.8862 12.9852C37.5806 15.6826 39.0637 19.2681 39.0622 23.0813C39.059 30.9481 32.6595 37.3491 24.7911 37.3523ZM18.3159 33.0317L18.749 33.2888C20.5702 34.3695 22.6578 34.9413 24.7863 34.9421H24.7911C31.3289 34.9421 36.6499 29.6209 36.6526 23.0805C36.6538 19.911 35.4212 16.9309 33.1817 14.6888C30.9422 12.4467 27.964 11.2113 24.7958 11.2102C18.253 11.2102 12.9318 16.5309 12.9292 23.0709C12.9283 25.3122 13.5554 27.4949 14.7428 29.3834L15.0248 29.8322L13.8265 34.2093L18.3159 33.0317ZM31.4924 26.1539C31.7411 26.2741 31.9091 26.3552 31.9808 26.4749C32.0699 26.6236 32.0699 27.3376 31.7729 28.1707C31.4756 29.0036 30.0511 29.7638 29.3659 29.8661C28.7516 29.958 27.9742 29.9963 27.12 29.7248C26.602 29.5605 25.9379 29.3411 25.0871 28.9737C21.7442 27.5302 19.485 24.2902 19.0581 23.6778C19.0282 23.6349 19.0072 23.6049 18.9956 23.5893L18.9927 23.5855C18.804 23.3337 17.5395 21.6466 17.5395 19.9006C17.5395 18.258 18.3464 17.3971 18.7178 17.0008C18.7432 16.9737 18.7666 16.9487 18.7876 16.9258C19.1144 16.5688 19.5008 16.4796 19.7385 16.4796C19.9762 16.4796 20.2141 16.4818 20.4219 16.4922C20.4475 16.4935 20.4742 16.4933 20.5018 16.4932C20.7096 16.4919 20.9686 16.4904 21.2242 17.1043C21.3225 17.3406 21.4664 17.6908 21.6181 18.0602C21.925 18.8072 22.264 19.6326 22.3236 19.752C22.4128 19.9305 22.4722 20.1387 22.3534 20.3768C22.3355 20.4125 22.319 20.4461 22.3032 20.4783C22.214 20.6606 22.1483 20.7947 21.9968 20.9716C21.9372 21.0411 21.8756 21.1161 21.814 21.1911C21.6914 21.3405 21.5687 21.4899 21.4619 21.5963C21.2834 21.7741 21.0975 21.9671 21.3055 22.3241C21.5136 22.6811 22.2292 23.8487 23.2893 24.7943C24.4288 25.8107 25.4192 26.2403 25.9212 26.458C26.0192 26.5006 26.0986 26.535 26.1569 26.5642C26.5133 26.7427 26.7214 26.7128 26.9294 26.4749C27.1374 26.237 27.8208 25.4337 28.0585 25.0767C28.2962 24.7199 28.534 24.7793 28.8608 24.8983C29.1877 25.0174 30.9408 25.8799 31.2974 26.0584C31.367 26.0933 31.4321 26.1247 31.4924 26.1539Z" fill="#FDFDFD"/>
</g>
<defs>
<clipPath id="clip0_28400_70513">
<rect width="48" height="48" fill="white"/>
</clipPath>
</defs>
</svg>
